<?xml version="1.0" encoding="UTF-8"?>
<!DOCTYPE svg PUBLIC "-//W3C//DTD SVG 1.1//EN" "http://www.w3.org/Graphics/SVG/1.1/DTD/svg11.dtd">
<svg xmlns="http://www.w3.org/2000/svg" version="1.1" width="150px" height="150px" style="shape-rendering:geometricPrecision; text-rendering:geometricPrecision; image-rendering:optimizeQuality; fill-rule:evenodd; clip-rule:evenodd" xmlns:xlink="http://www.w3.org/1999/xlink">
<g><path style="opacity:0.98" fill="#4663e6" d="M 13.5,-0.5 C 27.5,-0.5 41.5,-0.5 55.5,-0.5C 61.8127,2.31434 66.3127,6.98101 69,13.5C 69.6667,27.5 69.6667,41.5 69,55.5C 66.5,62 62,66.5 55.5,69C 41.5,69.6667 27.5,69.6667 13.5,69C 6.98101,66.3127 2.31434,61.8127 -0.5,55.5C -0.5,41.5 -0.5,27.5 -0.5,13.5C 2.5,7.16667 7.16667,2.5 13.5,-0.5 Z M 17.5,9.5 C 28.8382,9.33348 40.1716,9.50014 51.5,10C 54.196,10.6898 56.3626,12.1898 58,14.5C 59.6057,26.7624 59.939,39.0957 59,51.5C 58.3102,54.196 56.8102,56.3626 54.5,58C 42.2376,59.6057 29.9043,59.939 17.5,59C 14.804,58.3102 12.6374,56.8102 11,54.5C 9.39433,42.2376 9.06099,29.9043 10,17.5C 11.3532,13.6499 13.8532,10.9832 17.5,9.5 Z"/></g>
<g><path style="opacity:0.98" fill="#4663e6" d="M 93.5,-0.5 C 107.5,-0.5 121.5,-0.5 135.5,-0.5C 141.833,2.5 146.5,7.16667 149.5,13.5C 149.5,27.5 149.5,41.5 149.5,55.5C 146.686,61.8127 142.019,66.3127 135.5,69C 121.5,69.6667 107.5,69.6667 93.5,69C 87,66.5 82.5,62 80,55.5C 79.3333,41.5 79.3333,27.5 80,13.5C 82.6873,6.98101 87.1873,2.31434 93.5,-0.5 Z M 97.5,9.5 C 108.838,9.33348 120.172,9.50014 131.5,10C 134.196,10.6898 136.363,12.1898 138,14.5C 139.606,26.7624 139.939,39.0957 139,51.5C 138.31,54.196 136.81,56.3626 134.5,58C 122.238,59.6057 109.904,59.939 97.5,59C 94.804,58.3102 92.6374,56.8102 91,54.5C 89.3943,42.2376 89.061,29.9043 90,17.5C 91.3532,13.6499 93.8532,10.9832 97.5,9.5 Z"/></g>
<g><path style="opacity:0.98" fill="#4663e6" d="M 55.5,149.5 C 41.5,149.5 27.5,149.5 13.5,149.5C 7.16667,146.5 2.5,141.833 -0.5,135.5C -0.5,121.5 -0.5,107.5 -0.5,93.5C 2.31434,87.1873 6.98101,82.6873 13.5,80C 27.5,79.3333 41.5,79.3333 55.5,80C 62,82.5 66.5,87 69,93.5C 69.6667,107.5 69.6667,121.5 69,135.5C 66.3127,142.019 61.8127,146.686 55.5,149.5 Z M 17.5,89.5 C 28.8382,89.3335 40.1716,89.5001 51.5,90C 54.196,90.6898 56.3626,92.1898 58,94.5C 59.6057,106.762 59.939,119.096 59,131.5C 58.3102,134.196 56.8102,136.363 54.5,138C 42.2376,139.606 29.9043,139.939 17.5,139C 14.804,138.31 12.6374,136.81 11,134.5C 9.39433,122.238 9.06099,109.904 10,97.5C 11.3532,93.6499 13.8532,90.9832 17.5,89.5 Z"/></g>
<g><path style="opacity:0.98" fill="#4663e6" d="M 149.5,93.5 C 149.5,107.5 149.5,121.5 149.5,135.5C 146.5,141.833 141.833,146.5 135.5,149.5C 121.5,149.5 107.5,149.5 93.5,149.5C 87.1873,146.686 82.6873,142.019 80,135.5C 79.3333,121.5 79.3333,107.5 80,93.5C 82.5,87 87,82.5 93.5,80C 107.5,79.3333 121.5,79.3333 135.5,80C 142.019,82.6873 146.686,87.1873 149.5,93.5 Z M 97.5,89.5 C 108.838,89.3335 120.172,89.5001 131.5,90C 134.196,90.6898 136.363,92.1898 138,94.5C 139.606,106.762 139.939,119.096 139,131.5C 138.31,134.196 136.81,136.363 134.5,138C 122.238,139.606 109.904,139.939 97.5,139C 94.804,138.31 92.6374,136.81 91,134.5C 89.3943,122.238 89.061,109.904 90,97.5C 91.3532,93.6499 93.8532,90.9832 97.5,89.5 Z"/></g>
</svg>
