<?xml version="1.0" encoding="UTF-8"?>
<!DOCTYPE svg PUBLIC "-//W3C//DTD SVG 1.1//EN" "http://www.w3.org/Graphics/SVG/1.1/DTD/svg11.dtd">
<svg xmlns="http://www.w3.org/2000/svg" version="1.1" width="84px" height="84px" style="shape-rendering:geometricPrecision; text-rendering:geometricPrecision; image-rendering:optimizeQuality; fill-rule:evenodd; clip-rule:evenodd" xmlns:xlink="http://www.w3.org/1999/xlink">
<g><path style="opacity:0.93" fill="#4663e6" d="M 5.5,-0.5 C 29.5,-0.5 53.5,-0.5 77.5,-0.5C 79.8333,1.16667 81.8333,3.16667 83.5,5.5C 83.5,29.5 83.5,53.5 83.5,77.5C 81.8333,79.8333 79.8333,81.8333 77.5,83.5C 53.5,83.5 29.5,83.5 5.5,83.5C 3.16667,81.8333 1.16667,79.8333 -0.5,77.5C -0.5,53.5 -0.5,29.5 -0.5,5.5C 1.16667,3.16667 3.16667,1.16667 5.5,-0.5 Z M 10.5,5.5 C 31.1694,5.33338 51.836,5.50004 72.5,6C 75.0048,6.51033 76.5048,8.01033 77,10.5C 77.6667,31.1667 77.6667,51.8333 77,72.5C 76.6905,73.7659 76.1905,74.9326 75.5,76C 64.2347,77.1344 52.9014,77.6344 41.5,77.5C 31.1667,77.3333 20.8333,77.1667 10.5,77C 9.23409,76.6905 8.06743,76.1905 7,75.5C 5.36666,53.8973 5.03332,32.2307 6,10.5C 6.74282,8.06795 8.24282,6.40129 10.5,5.5 Z"/></g>
<g><path style="opacity:0.9" fill="#4663e6" d="M 41.5,15.5 C 42.8333,15.5 44.1667,15.5 45.5,15.5C 45.5237,21.4543 44.8571,27.2876 43.5,33C 47.8206,33.499 52.1539,33.6657 56.5,33.5C 56.6641,36.1873 56.4974,38.854 56,41.5C 51.4135,49.0045 47.0801,56.6712 43,64.5C 41.8904,66.0368 40.3904,66.7035 38.5,66.5C 38.7671,60.1624 39.1005,53.829 39.5,47.5C 34.8333,47.5 30.1667,47.5 25.5,47.5C 25.3433,46.1266 25.51,44.7932 26,43.5C 31.4448,34.2733 36.6114,24.9399 41.5,15.5 Z"/></g>
</svg>
