<?xml version="1.0" encoding="UTF-8"?>
<!DOCTYPE svg PUBLIC "-//W3C//DTD SVG 1.1//EN" "http://www.w3.org/Graphics/SVG/1.1/DTD/svg11.dtd">
<svg xmlns="http://www.w3.org/2000/svg" version="1.1" width="145px" height="145px" style="shape-rendering:geometricPrecision; text-rendering:geometricPrecision; image-rendering:optimizeQuality; fill-rule:evenodd; clip-rule:evenodd" xmlns:xlink="http://www.w3.org/1999/xlink">
<g><path style="opacity:0.98" fill="#4663e6" d="M 12.5,-0.5 C 52.1667,-0.5 91.8333,-0.5 131.5,-0.5C 133.769,0.97576 136.102,2.47576 138.5,4C 140.752,6.73612 142.752,9.56945 144.5,12.5C 144.5,52.1667 144.5,91.8333 144.5,131.5C 143.024,133.769 141.524,136.102 140,138.5C 137.264,140.752 134.431,142.752 131.5,144.5C 91.8333,144.5 52.1667,144.5 12.5,144.5C 10.2314,143.024 7.89805,141.524 5.5,140C 3.24806,137.264 1.24806,134.431 -0.5,131.5C -0.5,91.8333 -0.5,52.1667 -0.5,12.5C 0.97576,10.2314 2.47576,7.89805 4,5.5C 6.73612,3.24806 9.56945,1.24806 12.5,-0.5 Z M 19.5,9.5 C 54.5016,9.33335 89.5016,9.50002 124.5,10C 130.333,10.5 133.5,13.6667 134,19.5C 134.667,54.5 134.667,89.5 134,124.5C 133.5,130.333 130.333,133.5 124.5,134C 89.5,134.667 54.5,134.667 19.5,134C 13.6667,133.5 10.5,130.333 10,124.5C 9.33333,89.5 9.33333,54.5 10,19.5C 10.679,13.6569 13.8457,10.3236 19.5,9.5 Z"/></g>
<g><path style="opacity:0.989" fill="#4663e6" d="M 66.5,33.5 C 70.1817,33.3347 73.8484,33.5014 77.5,34C 78,34.5 78.5,35 79,35.5C 79.6667,53.8333 79.6667,72.1667 79,90.5C 78.5,91 78,91.5 77.5,92C 73.8333,92.6667 70.1667,92.6667 66.5,92C 66,91.5 65.5,91 65,90.5C 64.3333,72.1667 64.3333,53.8333 65,35.5C 65.7172,34.9558 66.2172,34.2891 66.5,33.5 Z"/></g>
<g><path style="opacity:0.941" fill="#4663e6" d="M 66.5,98.5 C 70.1817,98.3347 73.8484,98.5014 77.5,99C 80.1667,102.667 80.1667,106.333 77.5,110C 65.7893,113.132 62.1226,109.299 66.5,98.5 Z"/></g>
</svg>
