<?xml version="1.0" encoding="UTF-8"?>
<!DOCTYPE svg PUBLIC "-//W3C//DTD SVG 1.1//EN" "http://www.w3.org/Graphics/SVG/1.1/DTD/svg11.dtd">
<svg xmlns="http://www.w3.org/2000/svg" version="1.1" width="145px" height="146px" style="shape-rendering:geometricPrecision; text-rendering:geometricPrecision; image-rendering:optimizeQuality; fill-rule:evenodd; clip-rule:evenodd" xmlns:xlink="http://www.w3.org/1999/xlink">
<g><path style="opacity:0.868" fill="#4663e6" d="M 53.5,-0.5 C 62.1667,-0.5 70.8333,-0.5 79.5,-0.5C 99.6684,3.16892 115.502,13.5023 127,30.5C 135.774,46.5966 135.608,62.5966 126.5,78.5C 122.631,80.4249 120.298,79.2583 119.5,75C 130.243,50.8926 124.576,31.5593 102.5,17C 81.4644,5.95026 59.7977,4.61693 37.5,13C 10.6631,25.5011 2.1631,45.6678 12,73.5C 15.9364,79.273 20.4364,84.6064 25.5,89.5C 22.4726,96.096 19.9726,102.763 18,109.5C 26.3349,104.998 35.0016,101.331 44,98.5C 53.7323,100.509 63.5656,101.676 73.5,102C 76.1667,104.333 76.1667,106.667 73.5,109C 63.5086,110.001 53.6753,109.167 44,106.5C 33.4402,111.196 22.9402,116.03 12.5,121C 6.90571,122.913 4.73904,121.08 6,115.5C 9.30942,107.234 12.8094,99.0675 16.5,91C 8.11925,83.3846 2.45258,74.2179 -0.5,63.5C -0.5,57.1667 -0.5,50.8333 -0.5,44.5C 5.29805,25.8606 17.2981,12.694 35.5,5C 41.5308,2.83236 47.5308,0.999023 53.5,-0.5 Z"/></g>
<g><path style="opacity:0.878" fill="#4663e6" d="M 144.5,132.5 C 144.5,135.5 144.5,138.5 144.5,141.5C 142.809,142.864 141.142,144.197 139.5,145.5C 116.5,145.5 93.5,145.5 70.5,145.5C 65.8809,142.366 64.3809,138.032 66,132.5C 76.6814,112.468 87.3481,92.4685 98,72.5C 102.869,68.534 107.702,68.534 112.5,72.5C 123.195,92.5616 133.862,112.562 144.5,132.5 Z M 104.5,76.5 C 105.376,76.3691 106.043,76.7025 106.5,77.5C 116.706,97.412 127.039,117.245 137.5,137C 115.833,137.667 94.1667,137.667 72.5,137C 83.5741,117.017 94.2408,96.8503 104.5,76.5 Z"/></g>
<g><path style="opacity:0.882" fill="#4663e6" d="M 102.5,90.5 C 104.527,90.3379 106.527,90.5045 108.5,91C 109.126,91.7504 109.626,92.5838 110,93.5C 110.667,99.8333 110.667,106.167 110,112.5C 107.472,116.085 104.472,116.418 101,113.5C 100.333,106.5 100.333,99.5 101,92.5C 101.717,91.9558 102.217,91.2891 102.5,90.5 Z"/></g>
<g><path style="opacity:0.793" fill="#4663e6" d="M 102.5,120.5 C 107.835,120.005 110.335,122.338 110,127.5C 105.555,131.911 102.055,131.244 99.5,125.5C 100.26,123.64 101.26,121.973 102.5,120.5 Z"/></g>
</svg>
