<?xml version="1.0" encoding="UTF-8"?>
<!DOCTYPE svg PUBLIC "-//W3C//DTD SVG 1.1//EN" "http://www.w3.org/Graphics/SVG/1.1/DTD/svg11.dtd">
<svg xmlns="http://www.w3.org/2000/svg" version="1.1" width="145px" height="158px" style="shape-rendering:geometricPrecision; text-rendering:geometricPrecision; image-rendering:optimizeQuality; fill-rule:evenodd; clip-rule:evenodd" xmlns:xlink="http://www.w3.org/1999/xlink">
<g><path style="opacity:0.985" fill="#4663e6" d="M 27.5,-0.5 C 33.1667,-0.5 38.8333,-0.5 44.5,-0.5C 44.5,3.83333 44.5,8.16667 44.5,12.5C 52.1667,12.5 59.8333,12.5 67.5,12.5C 67.5,8.16667 67.5,3.83333 67.5,-0.5C 70.8333,-0.5 74.1667,-0.5 77.5,-0.5C 77.5,3.83333 77.5,8.16667 77.5,12.5C 85.1667,12.5 92.8333,12.5 100.5,12.5C 100.5,8.16667 100.5,3.83333 100.5,-0.5C 106.167,-0.5 111.833,-0.5 117.5,-0.5C 117.5,3.83333 117.5,8.16667 117.5,12.5C 129.915,10.2095 138.915,14.5428 144.5,25.5C 144.5,65.1667 144.5,104.833 144.5,144.5C 143.024,146.769 141.524,149.102 140,151.5C 137.264,153.752 134.431,155.752 131.5,157.5C 91.8333,157.5 52.1667,157.5 12.5,157.5C 10.2314,156.024 7.89805,154.524 5.5,153C 3.24806,150.264 1.24806,147.431 -0.5,144.5C -0.5,104.833 -0.5,65.1667 -0.5,25.5C 5.36552,14.239 14.6989,9.90568 27.5,12.5C 27.5,8.16667 27.5,3.83333 27.5,-0.5 Z M 19.5,22.5 C 22.1667,22.5 24.8333,22.5 27.5,22.5C 27.5,30.1667 27.5,37.8333 27.5,45.5C 33.1667,45.5 38.8333,45.5 44.5,45.5C 44.5,37.8333 44.5,30.1667 44.5,22.5C 52.1667,22.5 59.8333,22.5 67.5,22.5C 67.5,30.1667 67.5,37.8333 67.5,45.5C 70.8333,45.5 74.1667,45.5 77.5,45.5C 77.5,37.8333 77.5,30.1667 77.5,22.5C 85.1667,22.5 92.8333,22.5 100.5,22.5C 100.5,30.1667 100.5,37.8333 100.5,45.5C 106.167,45.5 111.833,45.5 117.5,45.5C 117.5,37.8333 117.5,30.1667 117.5,22.5C 122.046,22.2681 126.379,23.1015 130.5,25C 132.604,27.0424 133.771,29.5424 134,32.5C 134.974,68.8803 134.641,105.214 133,141.5C 131.272,144.953 128.438,146.786 124.5,147C 89.5,147.667 54.5,147.667 19.5,147C 15.5615,146.786 12.7282,144.953 11,141.5C 9.35919,105.214 9.02586,68.8803 10,32.5C 10.679,26.6569 13.8457,23.3236 19.5,22.5 Z"/></g>
<g><path style="opacity:1" fill="#4663e6" d="M 21.5,66.5 C 56.1667,66.5 90.8333,66.5 125.5,66.5C 125.5,69.8333 125.5,73.1667 125.5,76.5C 90.8333,76.5 56.1667,76.5 21.5,76.5C 21.5,73.1667 21.5,69.8333 21.5,66.5 Z"/></g>
<g><path style="opacity:1" fill="#4663e6" d="M 21.5,106.5 C 56.1667,106.5 90.8333,106.5 125.5,106.5C 125.5,109.833 125.5,113.167 125.5,116.5C 90.8333,116.5 56.1667,116.5 21.5,116.5C 21.5,113.167 21.5,109.833 21.5,106.5 Z"/></g>
</svg>
