<?xml version="1.0" encoding="UTF-8"?>
<!DOCTYPE svg PUBLIC "-//W3C//DTD SVG 1.1//EN" "http://www.w3.org/Graphics/SVG/1.1/DTD/svg11.dtd">
<svg xmlns="http://www.w3.org/2000/svg" version="1.1" width="176px" height="176px" style="shape-rendering:geometricPrecision; text-rendering:geometricPrecision; image-rendering:optimizeQuality; fill-rule:evenodd; clip-rule:evenodd" xmlns:xlink="http://www.w3.org/1999/xlink">
<g><path style="opacity:0.937" fill="#4663e6" d="M 41.5,-0.5 C 77.5,-0.5 113.5,-0.5 149.5,-0.5C 164.35,5.02801 173.017,15.6947 175.5,31.5C 175.5,38.1667 175.5,44.8333 175.5,51.5C 174.525,54.3112 173.858,57.3112 173.5,60.5C 157.5,60.5 141.5,60.5 125.5,60.5C 125.5,87.5 125.5,114.5 125.5,141.5C 126.5,141.5 127.5,141.5 128.5,141.5C 127.791,142.404 126.791,142.737 125.5,142.5C 124.828,147.013 122.995,151.013 120,154.5C 113.625,161.371 107.458,168.371 101.5,175.5C 99.1667,175.5 96.8333,175.5 94.5,175.5C 90.1196,172.446 86.7863,168.446 84.5,163.5C 82.4402,168.323 79.4402,172.323 75.5,175.5C 72.8333,175.5 70.1667,175.5 67.5,175.5C 64.2274,172.051 61.0608,168.384 58,164.5C 52.6576,174.721 44.8243,177.221 34.5,172C 25.7453,162.932 19.0787,152.599 14.5,141C 15.3301,102.571 15.8301,64.0712 16,25.5C 18.5672,12.4088 27.0672,3.74213 41.5,-0.5 Z M 49.5,9.5 C 73.4923,10.1863 97.4923,10.6863 121.5,11C 117.364,17.7421 115.031,25.0755 114.5,33C 115.644,68.8193 115.811,104.653 115,140.5C 109.362,148.145 103.695,155.812 98,163.5C 93.9199,155.671 89.5865,148.004 85,140.5C 79.4166,147.769 75.0832,155.769 72,164.5C 67.8327,156.828 63.1661,149.495 58,142.5C 53.4969,148.835 49.4969,155.502 46,162.5C 42.5185,164.077 39.8518,163.077 38,159.5C 34,153.5 30,147.5 26,141.5C 25.0439,103.471 25.3772,65.4708 27,27.5C 30.8109,16.8494 38.3109,10.8494 49.5,9.5 Z M 138.5,12.5 C 145.97,9.47569 152.47,11.1424 158,17.5C 163.909,27.6871 166.076,38.6871 164.5,50.5C 151.5,50.5 138.5,50.5 125.5,50.5C 124.94,41.0164 125.773,31.6831 128,22.5C 129.493,16.8356 132.993,13.5023 138.5,12.5 Z"/></g>
<g><path style="opacity:0.047" fill="#4663e6" d="M 12.5,8.5 C 13.2506,7.42654 14.2506,7.25988 15.5,8C 14.552,8.48278 13.552,8.64945 12.5,8.5 Z"/></g>
<g><path style="opacity:0.051" fill="#4663e6" d="M 10.5,9.5 C 10.8417,8.66175 11.5084,8.32842 12.5,8.5C 12.1583,9.33825 11.4916,9.67158 10.5,9.5 Z"/></g>
<g><path style="opacity:0.033" fill="#4663e6" d="M 8.5,10.5 C 8.84171,9.66175 9.50838,9.32842 10.5,9.5C 10.1583,10.3382 9.49162,10.6716 8.5,10.5 Z"/></g>
<g><path style="opacity:0.082" fill="#4663e6" d="M 8.5,10.5 C 7.83333,11.1667 7.83333,11.1667 8.5,10.5 Z"/></g>
<g><path style="opacity:0.018" fill="#4663e6" d="M 5.5,12.5 C 5.84171,11.6618 6.50838,11.3284 7.5,11.5C 7.15829,12.3382 6.49162,12.6716 5.5,12.5 Z"/></g>
<g><path style="opacity:0.024" fill="#4663e6" d="M 5.5,12.5 C 4.83333,13.1667 4.83333,13.1667 5.5,12.5 Z"/></g>
<g><path style="opacity:0.016" fill="#4663e6" d="M 4.5,13.5 C 4.67158,14.4916 4.33825,15.1583 3.5,15.5C 3.32842,14.5084 3.66175,13.8417 4.5,13.5 Z"/></g>
<g><path style="opacity:0.078" fill="#4663e6" d="M 3.5,15.5 C 2.83333,16.1667 2.83333,16.1667 3.5,15.5 Z"/></g>
<g><path style="opacity:0.033" fill="#4663e6" d="M 2.5,16.5 C 2.67158,17.4916 2.33825,18.1583 1.5,18.5C 1.32842,17.5084 1.66175,16.8417 2.5,16.5 Z"/></g>
<g><path style="opacity:0.053" fill="#4663e6" d="M 1.5,18.5 C 1.67158,19.4916 1.33825,20.1583 0.5,20.5C 0.32842,19.5084 0.661754,18.8417 1.5,18.5 Z"/></g>
<g><path style="opacity:0.067" fill="#4663e6" d="M 14.5,18.5 C 15.8333,19.1667 15.8333,19.1667 14.5,18.5 Z"/></g>
<g><path style="opacity:0.063" fill="#4663e6" d="M 12.5,19.5 C 13.8333,20.1667 13.8333,20.1667 12.5,19.5 Z"/></g>
<g><path style="opacity:0.047" fill="#4663e6" d="M -0.5,20.5 C -0.166667,20.5 0.166667,20.5 0.5,20.5C 0.737305,21.791 0.403972,22.791 -0.5,23.5C -0.5,22.5 -0.5,21.5 -0.5,20.5 Z"/></g>
<g><path style="opacity:0.063" fill="#4663e6" d="M 12.5,20.5 C 11.8333,21.1667 11.8333,21.1667 12.5,20.5 Z"/></g>
<g><path style="opacity:0.055" fill="#4663e6" d="M 10.5,22.5 C 11.8333,23.1667 11.8333,23.1667 10.5,22.5 Z"/></g>
<g><path style="opacity:0.042" fill="#4663e6" d="M 10.5,23.5 C 10.6567,24.8734 10.49,26.2068 10,27.5C 9.23502,25.9343 9.40168,24.6009 10.5,23.5 Z"/></g>
<g><path style="opacity:0.881" fill="#4663e6" d="M 69.5,42.5 C 71.8333,42.5 74.1667,42.5 76.5,42.5C 76.5,44.1667 76.5,45.8333 76.5,47.5C 84.8977,48.7298 89.8977,53.5631 91.5,62C 87.6049,63.2662 83.6049,63.7662 79.5,63.5C 79.7035,61.6096 79.0368,60.1096 77.5,59C 72.9248,56.9699 69.0915,57.4699 66,60.5C 65.1533,63.5876 65.6533,66.4209 67.5,69C 74.8685,71.1854 81.8685,74.1854 88.5,78C 93.2201,85.4891 93.7201,93.3224 90,101.5C 86.7332,105.551 82.5666,108.218 77.5,109.5C 76.52,112.086 76.1866,114.753 76.5,117.5C 74.1667,117.5 71.8333,117.5 69.5,117.5C 69.5,114.833 69.5,112.167 69.5,109.5C 59.0359,108.036 53.3693,102.036 52.5,91.5C 56.4809,90.9791 60.4809,90.6458 64.5,90.5C 65.1417,95.8085 68.1417,98.8085 73.5,99.5C 80.2764,99.3821 82.7764,95.7154 81,88.5C 80.1667,87.6667 79.3333,86.8333 78.5,86C 72.0921,84.7294 66.0921,82.396 60.5,79C 54.3785,72.1738 52.8785,64.3405 56,55.5C 59.1334,50.5345 63.6334,47.8678 69.5,47.5C 69.5,45.8333 69.5,44.1667 69.5,42.5 Z"/></g>
<g><path style="opacity:0.047" fill="#4663e6" d="M 10.5,136.5 C 9.40168,135.399 9.23502,134.066 10,132.5C 10.49,133.793 10.6567,135.127 10.5,136.5 Z"/></g>
<g><path style="opacity:0.042" fill="#4663e6" d="M 133.5,136.5 C 133.343,135.127 133.51,133.793 134,132.5C 134.765,134.066 134.598,135.399 133.5,136.5 Z"/></g>
<g><path style="opacity:0.047" fill="#4663e6" d="M -0.5,136.5 C 0.403972,137.209 0.737305,138.209 0.5,139.5C 0.166667,139.5 -0.166667,139.5 -0.5,139.5C -0.5,138.5 -0.5,137.5 -0.5,136.5 Z"/></g>
<g><path style="opacity:0.055" fill="#4663e6" d="M 10.5,136.5 C 11.8333,137.167 11.8333,137.167 10.5,136.5 Z"/></g>
<g><path style="opacity:0.055" fill="#4663e6" d="M 133.5,136.5 C 132.833,137.167 132.833,137.167 133.5,136.5 Z"/></g>
<g><path style="opacity:0.047" fill="#4663e6" d="M 143.5,139.5 C 143.351,138.448 143.517,137.448 144,136.5C 144.74,137.749 144.573,138.749 143.5,139.5 Z"/></g>
<g><path style="opacity:0.063" fill="#4663e6" d="M 12.5,139.5 C 11.8333,138.167 11.8333,138.167 12.5,139.5 Z"/></g>
<g><path style="opacity:0.063" fill="#4663e6" d="M 131.5,138.5 C 132.833,139.167 132.833,139.167 131.5,138.5 Z"/></g>
<g><path style="opacity:0.051" fill="#4663e6" d="M 0.5,139.5 C 1.33825,139.842 1.67158,140.508 1.5,141.5C 0.661754,141.158 0.32842,140.492 0.5,139.5 Z"/></g>
<g><path style="opacity:0.063" fill="#4663e6" d="M 12.5,139.5 C 13.8333,140.167 13.8333,140.167 12.5,139.5 Z"/></g>
<g><path style="opacity:0.063" fill="#4663e6" d="M 131.5,139.5 C 130.833,140.167 130.833,140.167 131.5,139.5 Z"/></g>
<g><path style="opacity:0.051" fill="#4663e6" d="M 143.5,139.5 C 143.672,140.492 143.338,141.158 142.5,141.5C 142.328,140.508 142.662,139.842 143.5,139.5 Z"/></g>
<g><path style="opacity:0.067" fill="#4663e6" d="M 128.5,140.5 C 129.833,141.167 129.833,141.167 128.5,140.5 Z"/></g>
<g><path style="opacity:0.033" fill="#4663e6" d="M 1.5,141.5 C 2.33825,141.842 2.67158,142.508 2.5,143.5C 1.66175,143.158 1.32842,142.492 1.5,141.5 Z"/></g>
<g><path style="opacity:0.033" fill="#4663e6" d="M 142.5,141.5 C 142.672,142.492 142.338,143.158 141.5,143.5C 141.328,142.508 141.662,141.842 142.5,141.5 Z"/></g>
<g><path style="opacity:0.082" fill="#4663e6" d="M 2.5,143.5 C 3.16667,143.5 3.5,143.833 3.5,144.5C 3.16667,144.167 2.83333,143.833 2.5,143.5 Z"/></g>
<g><path style="opacity:0.078" fill="#4663e6" d="M 141.5,143.5 C 140.833,144.167 140.833,144.167 141.5,143.5 Z"/></g>
<g><path style="opacity:0.02" fill="#4663e6" d="M 3.5,144.5 C 4.33825,144.842 4.67158,145.508 4.5,146.5C 3.66175,146.158 3.32842,145.492 3.5,144.5 Z"/></g>
<g><path style="opacity:0.02" fill="#4663e6" d="M 140.5,144.5 C 140.672,145.492 140.338,146.158 139.5,146.5C 139.328,145.508 139.662,144.842 140.5,144.5 Z"/></g>
<g><path style="opacity:0.024" fill="#4663e6" d="M 4.5,146.5 C 5.16667,146.5 5.5,146.833 5.5,147.5C 5.16667,147.167 4.83333,146.833 4.5,146.5 Z"/></g>
<g><path style="opacity:0.024" fill="#4663e6" d="M 139.5,146.5 C 138.833,147.167 138.833,147.167 139.5,146.5 Z"/></g>
<g><path style="opacity:0.018" fill="#4663e6" d="M 5.5,147.5 C 6.49162,147.328 7.15829,147.662 7.5,148.5C 6.50838,148.672 5.84171,148.338 5.5,147.5 Z"/></g>
<g><path style="opacity:0.018" fill="#4663e6" d="M 136.5,148.5 C 136.842,147.662 137.508,147.328 138.5,147.5C 138.158,148.338 137.492,148.672 136.5,148.5 Z"/></g>
<g><path style="opacity:0.082" fill="#4663e6" d="M 7.5,148.5 C 8.16667,148.5 8.5,148.833 8.5,149.5C 8.16667,149.167 7.83333,148.833 7.5,148.5 Z"/></g>
<g><path style="opacity:0.078" fill="#4663e6" d="M 136.5,148.5 C 135.833,149.167 135.833,149.167 136.5,148.5 Z"/></g>
<g><path style="opacity:0.035" fill="#4663e6" d="M 8.5,149.5 C 9.49162,149.328 10.1583,149.662 10.5,150.5C 9.50838,150.672 8.84171,150.338 8.5,149.5 Z"/></g>
<g><path style="opacity:0.035" fill="#4663e6" d="M 133.5,150.5 C 133.842,149.662 134.508,149.328 135.5,149.5C 135.158,150.338 134.492,150.672 133.5,150.5 Z"/></g>
<g><path style="opacity:0.049" fill="#4663e6" d="M 10.5,150.5 C 11.4916,150.328 12.1583,150.662 12.5,151.5C 11.5084,151.672 10.8417,151.338 10.5,150.5 Z"/></g>
<g><path style="opacity:0.049" fill="#4663e6" d="M 131.5,151.5 C 131.842,150.662 132.508,150.328 133.5,150.5C 133.158,151.338 132.492,151.672 131.5,151.5 Z"/></g>
<g><path style="opacity:0.047" fill="#4663e6" d="M 12.5,151.5 C 13.552,151.351 14.552,151.517 15.5,152C 14.2506,152.74 13.2506,152.573 12.5,151.5 Z"/></g>
<g><path style="opacity:0.047" fill="#4663e6" d="M 131.5,151.5 C 130.749,152.573 129.749,152.74 128.5,152C 129.448,151.517 130.448,151.351 131.5,151.5 Z"/></g>
</svg>
