<?xml version="1.0" encoding="UTF-8"?>
<!DOCTYPE svg PUBLIC "-//W3C//DTD SVG 1.1//EN" "http://www.w3.org/Graphics/SVG/1.1/DTD/svg11.dtd">
<svg xmlns="http://www.w3.org/2000/svg" version="1.1" width="67px" height="139px" style="shape-rendering:geometricPrecision; text-rendering:geometricPrecision; image-rendering:optimizeQuality; fill-rule:evenodd; clip-rule:evenodd" xmlns:xlink="http://www.w3.org/1999/xlink">
<g><path style="opacity:0.933" fill="#4663e6" d="M 23.5,-0.5 C 30.1667,-0.5 36.8333,-0.5 43.5,-0.5C 55.9077,2.90861 63.5744,10.9086 66.5,23.5C 66.5,30.5 66.5,37.5 66.5,44.5C 57.303,56.2049 47.1363,67.2049 36,77.5C 35.3333,78.8333 34.6667,80.1667 34,81.5C 33.5003,89.8267 33.3336,98.16 33.5,106.5C 27.8333,106.5 22.1667,106.5 16.5,106.5C 16.0712,95.7551 16.5712,85.0885 18,74.5C 20.0836,70.6641 22.417,66.9974 25,63.5C 33.6667,56.1667 41.6667,48.1667 49,39.5C 52.101,18.9395 43.601,11.7728 23.5,18C 20.6193,19.2506 18.786,21.4173 18,24.5C 16.4162,30.9393 15.4162,37.2726 15,43.5C 9.83376,44.8096 4.6671,44.8096 -0.5,43.5C -0.5,37.1667 -0.5,30.8333 -0.5,24.5C 2.73369,11.5995 10.7337,3.26616 23.5,-0.5 Z"/></g>
<g><path style="opacity:0.971" fill="#4663e6" d="M 31.5,138.5 C 27.1667,138.5 22.8333,138.5 18.5,138.5C 18.2172,137.711 17.7172,137.044 17,136.5C 16.3333,130.833 16.3333,125.167 17,119.5C 17.5,119 18,118.5 18.5,118C 22.8333,117.333 27.1667,117.333 31.5,118C 32,118.5 32.5,119 33,119.5C 33.6667,125.167 33.6667,130.833 33,136.5C 32.2828,137.044 31.7828,137.711 31.5,138.5 Z"/></g>
</svg>
