<?xml version="1.0" encoding="UTF-8"?>
<!DOCTYPE svg PUBLIC "-//W3C//DTD SVG 1.1//EN" "http://www.w3.org/Graphics/SVG/1.1/DTD/svg11.dtd">
<svg xmlns="http://www.w3.org/2000/svg" version="1.1" width="150px" height="150px" style="shape-rendering:geometricPrecision; text-rendering:geometricPrecision; image-rendering:optimizeQuality; fill-rule:evenodd; clip-rule:evenodd" xmlns:xlink="http://www.w3.org/1999/xlink">
<g><path style="opacity:0.916" fill="#4663e6" d="M 52.5,-0.5 C 58.5,-0.5 64.5,-0.5 70.5,-0.5C 73.8597,0.623203 77.1931,1.95654 80.5,3.5C 87.8226,8.49161 93.8226,14.8249 98.5,22.5C 105.87,42.5158 101.204,59.0158 84.5,72C 90.899,74.951 96.7323,78.7844 102,83.5C 102.667,84.5 102.667,85.5 102,86.5C 99.2669,89.2331 96.6003,91.8997 94,94.5C 88.8171,89.9929 82.9837,86.6596 76.5,84.5C 71.1941,82.9117 65.6941,81.5784 60,80.5C 54.3397,81.7013 48.8397,83.0346 43.5,84.5C 24.1382,93.0657 13.9715,108.066 13,129.5C 8.59858,130.467 4.09858,130.8 -0.5,130.5C -0.5,125.833 -0.5,121.167 -0.5,116.5C 4.96523,95.857 17.2986,80.6903 36.5,71C 31.3806,66.5415 27.3806,61.3748 24.5,55.5C 20.5005,44.5044 20.5005,33.5044 24.5,22.5C 30.8523,11.1427 40.1856,3.47605 52.5,-0.5 Z M 70.5,15.5 C 75.2715,16.599 78.9381,19.2657 81.5,23.5C 83.4514,25.48 84.9514,27.8133 86,30.5C 86.6514,32.235 86.4847,33.9017 85.5,35.5C 85.8457,36.6956 86.3457,36.6956 87,35.5C 87.8007,38.367 87.6341,41.0336 86.5,43.5C 84.1694,56.6795 76.5027,63.5128 63.5,64C 64.1667,64.3333 64.8333,64.6667 65.5,65C 57.1816,66.6315 49.015,63.4648 41,55.5C 38.9833,51.6072 37.4833,47.6072 36.5,43.5C 35.5889,39.098 35.5889,35.4314 36.5,32.5C 37.6137,29.1246 39.2804,26.1246 41.5,23.5C 42.5,21.8333 43.8333,20.5 45.5,19.5C 47.4301,17.5501 49.7634,16.2167 52.5,15.5C 58.5,12.8333 64.5,12.8333 70.5,15.5 Z"/></g>
<g><path style="opacity:0.004" fill="#4663e6" d="M 80.5,2.5 C 81.8333,3.16667 81.8333,3.16667 80.5,2.5 Z"/></g>
<g><path style="opacity:0.004" fill="#4663e6" d="M 24.5,22.5 C 23.8333,21.1667 23.8333,21.1667 24.5,22.5 Z"/></g>
<g><path style="opacity:0.004" fill="#4663e6" d="M 98.5,21.5 C 99.8333,22.1667 99.8333,22.1667 98.5,21.5 Z"/></g>
<g><path style="opacity:0.004" fill="#4663e6" d="M 24.5,55.5 C 23.8333,56.1667 23.8333,56.1667 24.5,55.5 Z"/></g>
<g><path style="opacity:0.892" fill="#4663e6" d="M 149.5,73.5 C 149.5,77.1667 149.5,80.8333 149.5,84.5C 128.891,106.444 107.891,128.111 86.5,149.5C 79.1667,149.5 71.8333,149.5 64.5,149.5C 64.3337,142.492 64.5004,135.492 65,128.5C 86.9371,106.563 108.604,84.8962 130,63.5C 138.728,62.7789 145.228,66.1123 149.5,73.5 Z M 134.5,72.5 C 140.326,73.8252 142.159,77.1585 140,82.5C 120.5,102 101,121.5 81.5,141C 78.854,141.497 76.1873,141.664 73.5,141.5C 73.3354,138.482 73.502,135.482 74,132.5C 92.693,113.228 111.526,94.0617 130.5,75C 132.066,74.3918 133.4,73.5585 134.5,72.5 Z"/></g>
<g><path style="opacity:0.004" fill="#4663e6" d="M 43.5,84.5 C 44.8333,85.1667 44.8333,85.1667 43.5,84.5 Z"/></g>
<g><path style="opacity:0.004" fill="#4663e6" d="M 76.5,84.5 C 75.8333,85.1667 75.8333,85.1667 76.5,84.5 Z"/></g>
</svg>
