<?xml version="1.0" encoding="UTF-8"?>
<!DOCTYPE svg PUBLIC "-//W3C//DTD SVG 1.1//EN" "http://www.w3.org/Graphics/SVG/1.1/DTD/svg11.dtd">
<svg xmlns="http://www.w3.org/2000/svg" version="1.1" width="145px" height="145px" style="shape-rendering:geometricPrecision; text-rendering:geometricPrecision; image-rendering:optimizeQuality; fill-rule:evenodd; clip-rule:evenodd" xmlns:xlink="http://www.w3.org/1999/xlink">
<g><path style="opacity:0.98" fill="#4663e6" d="M 12.5,-0.5 C 52.1667,-0.5 91.8333,-0.5 131.5,-0.5C 133.769,0.97576 136.102,2.47576 138.5,4C 140.752,6.73612 142.752,9.56945 144.5,12.5C 144.5,52.1667 144.5,91.8333 144.5,131.5C 143.024,133.769 141.524,136.102 140,138.5C 137.264,140.752 134.431,142.752 131.5,144.5C 91.8333,144.5 52.1667,144.5 12.5,144.5C 10.2314,143.024 7.89805,141.524 5.5,140C 3.24806,137.264 1.24806,134.431 -0.5,131.5C -0.5,91.8333 -0.5,52.1667 -0.5,12.5C 0.97576,10.2314 2.47576,7.89805 4,5.5C 6.73612,3.24806 9.56945,1.24806 12.5,-0.5 Z M 19.5,9.5 C 54.5016,9.33335 89.5016,9.50002 124.5,10C 130.333,10.5 133.5,13.6667 134,19.5C 134.667,54.5 134.667,89.5 134,124.5C 133.5,130.333 130.333,133.5 124.5,134C 89.5,134.667 54.5,134.667 19.5,134C 13.6667,133.5 10.5,130.333 10,124.5C 9.33333,89.5 9.33333,54.5 10,19.5C 10.679,13.6569 13.8457,10.3236 19.5,9.5 Z"/></g>
<g><path style="opacity:0.881" fill="#4663e6" d="M 69.5,34.5 C 71.8333,34.5 74.1667,34.5 76.5,34.5C 76.5,36.1667 76.5,37.8333 76.5,39.5C 84.8977,40.7298 89.8977,45.5631 91.5,54C 87.6049,55.2662 83.6049,55.7662 79.5,55.5C 79.7035,53.6096 79.0368,52.1096 77.5,51C 72.9248,48.9699 69.0915,49.4699 66,52.5C 65.1533,55.5876 65.6533,58.4209 67.5,61C 74.8685,63.1854 81.8685,66.1854 88.5,70C 93.2201,77.4891 93.7201,85.3224 90,93.5C 86.7332,97.5513 82.5666,100.218 77.5,101.5C 76.52,104.086 76.1866,106.753 76.5,109.5C 74.1667,109.5 71.8333,109.5 69.5,109.5C 69.5,106.833 69.5,104.167 69.5,101.5C 59.0359,100.036 53.3693,94.0358 52.5,83.5C 56.4809,82.9791 60.4809,82.6458 64.5,82.5C 65.1417,87.8085 68.1417,90.8085 73.5,91.5C 80.2764,91.3821 82.7764,87.7154 81,80.5C 80.1667,79.6667 79.3333,78.8333 78.5,78C 72.0921,76.7294 66.0921,74.396 60.5,71C 54.3785,64.1738 52.8785,56.3405 56,47.5C 59.1334,42.5345 63.6334,39.8678 69.5,39.5C 69.5,37.8333 69.5,36.1667 69.5,34.5 Z"/></g>
</svg>
