<?xml version="1.0" standalone="no"?>
<!DOCTYPE svg PUBLIC "-//W3C//DTD SVG 20010904//EN"
 "http://www.w3.org/TR/2001/REC-SVG-20010904/DTD/svg10.dtd">
<svg version="1.0" xmlns="http://www.w3.org/2000/svg"
 width="2361.000000pt" height="500.000000pt" viewBox="0 0 2361.000000 500.000000"
 preserveAspectRatio="xMidYMid meet">

<g transform="translate(0.000000,500.000000) scale(0.100000,-0.100000)"
fill="#ffffff" stroke="none">
<path d="M2168 4908 l-148 -81 0 -69 c0 -37 2 -68 5 -68 3 0 70 37 150 82
l145 82 0 68 c0 37 -1 68 -2 68 -2 0 -69 -37 -150 -82z"/>
<path d="M2250 4652 l-65 -38 -3 -73 -3 -73 70 39 71 38 0 73 c0 39 -1 72 -2
72 -2 0 -32 -17 -68 -38z"/>
<path d="M1861 4584 c-79 -46 -146 -84 -148 -84 -1 0 -3 34 -3 75 0 41 -3 75
-6 75 -8 0 -254 -135 -277 -153 -15 -10 -17 -25 -15 -84 l3 -72 68 39 c38 22
70 40 73 40 2 0 4 -36 4 -79 l0 -79 -76 -46 c-42 -25 -78 -46 -80 -46 -2 0 -4
34 -6 75 l-3 74 -68 -39 c-38 -22 -70 -40 -73 -40 -2 0 -4 36 -4 80 l0 80 -52
-26 c-29 -15 -132 -70 -228 -124 -96 -53 -251 -139 -345 -190 -190 -105 -282
-164 -376 -246 -89 -76 -111 -115 -106 -182 8 -110 46 -136 747 -521 l505
-276 5 59 5 59 130 74 c193 110 175 92 175 177 l0 74 75 44 75 43 0 148 0 148
-57 -32 c-32 -17 -62 -36 -67 -41 -21 -18 -26 -5 -26 66 l0 75 -62 -35 c-35
-20 -69 -40 -75 -46 -9 -8 -13 -53 -13 -162 l0 -151 -75 -40 -75 -40 0 -77 0
-77 -72 -42 c-40 -23 -76 -44 -80 -46 -5 -2 -8 67 -8 154 l0 158 75 43 75 42
0 70 c0 67 -5 80 -26 62 -5 -5 -35 -24 -66 -41 l-58 -32 0 158 0 159 75 43 75
42 0 77 0 77 75 43 c41 23 77 42 79 42 3 0 7 -67 8 -149 l3 -150 140 80 c77
44 143 83 148 88 4 4 7 38 5 74 l-3 66 -68 -39 c-38 -22 -70 -40 -73 -40 -2 0
-4 36 -4 80 l0 80 75 42 75 43 0 77 0 77 75 42 75 43 0 73 c0 40 -1 73 -2 72
-2 0 -68 -38 -147 -85z"/>
<path d="M2027 4370 c-76 -43 -143 -82 -148 -87 -6 -6 -9 -40 -7 -76 l3 -66
139 79 c76 43 142 82 148 88 5 5 8 39 6 75 l-3 65 -138 -78z"/>
<path d="M2248 4342 l-68 -37 0 -73 0 -72 48 27 c97 56 93 50 90 125 l-3 67
-67 -37z"/>
<path d="M2243 4032 l-63 -36 0 -72 0 -72 70 41 70 42 0 68 c0 37 -3 67 -7 67
-5 -1 -36 -17 -70 -38z"/>
<path d="M1938 4012 l-68 -37 0 -148 0 -148 70 38 70 38 0 148 c0 81 -1 147
-2 147 -2 0 -33 -17 -70 -38z"/>
<path d="M1478 3752 l-68 -37 0 -73 0 -72 48 27 c97 56 93 50 90 125 l-3 67
-67 -37z"/>
<path d="M2088 3638 l-68 -40 0 -77 0 -76 -75 -43 -75 -42 0 -78 0 -77 -71
-38 c-39 -22 -73 -45 -75 -52 -3 -6 -4 -39 -2 -73 l3 -60 143 80 142 81 0 76
0 76 78 45 77 45 3 148 c1 81 -1 147 -5 146 -5 -1 -38 -19 -75 -41z"/>
<path d="M5 2718 c-4 -420 -5 -828 -3 -908 6 -181 23 -234 107 -321 48 -50 96
-81 351 -222 283 -158 727 -405 1365 -762 165 -92 343 -192 396 -221 53 -30
99 -54 103 -54 3 0 5 411 4 913 l-3 912 -32 67 c-52 111 -149 200 -298 275
-33 17 -267 144 -520 283 -253 139 -575 316 -715 393 -140 77 -364 200 -497
273 -133 74 -244 134 -246 134 -3 0 -8 -343 -12 -762z m1732 -1326 c189 -106
253 -146 271 -172 22 -33 22 -40 20 -243 -3 -178 -5 -211 -19 -220 -12 -7 -51
10 -165 75 -82 46 -200 113 -262 147 -78 44 -117 72 -127 92 -12 22 -15 72
-15 232 0 204 4 227 36 227 7 0 125 -62 261 -138z"/>
<path d="M1640 2924 c-30 -19 -85 -51 -122 -71 -38 -21 -68 -40 -68 -43 0 -6
222 -130 233 -130 4 0 45 21 92 48 l85 47 0 58 c0 31 -2 57 -5 57 -3 0 -35
-18 -71 -40 -36 -22 -68 -40 -70 -40 -2 0 -4 34 -4 75 0 41 -3 75 -7 74 -5 0
-33 -16 -63 -35z"/>
<path d="M4550 2235 l0 -174 -127 -3 -128 -3 0 -100 0 -100 128 -3 127 -3 0
-424 c0 -561 10 -629 112 -741 121 -132 315 -173 561 -118 l77 17 0 105 c0 95
-2 104 -17 97 -88 -34 -243 -45 -317 -23 -55 17 -131 91 -146 143 -19 66 -29
282 -30 622 l0 323 218 2 217 3 0 100 0 100 -217 3 -218 2 0 175 0 175 -120 0
-120 0 0 -175z"/>
<path d="M22860 2235 l0 -175 -130 0 -130 0 0 -105 0 -105 129 0 130 0 4 -477
c3 -392 6 -487 19 -528 48 -157 147 -248 318 -291 79 -20 228 -15 338 11 l72
17 0 105 c0 81 -3 104 -13 100 -55 -21 -178 -39 -241 -35 -113 8 -174 47 -218
143 -23 49 -23 55 -26 503 l-3 452 215 0 216 0 0 105 0 105 -215 0 -215 0 -2
173 -3 172 -122 3 -123 3 0 -176z"/>
<path d="M3415 2090 c-148 -21 -265 -82 -340 -178 -64 -81 -88 -148 -89 -252
-1 -72 3 -94 26 -142 32 -70 96 -134 174 -175 33 -17 156 -61 274 -98 238 -75
295 -99 333 -145 49 -57 49 -155 0 -224 -32 -45 -116 -101 -178 -117 -22 -6
-91 -9 -155 -7 -100 3 -122 6 -165 29 -60 30 -104 89 -112 147 l-6 42 -124 0
-125 0 7 -52 c22 -169 164 -309 365 -359 82 -21 327 -18 410 5 177 48 302 165
352 329 16 55 19 87 16 160 -5 109 -27 166 -87 226 -61 61 -137 94 -388 167
-329 96 -373 123 -373 232 0 141 118 219 319 210 146 -7 226 -49 246 -131 l7
-27 120 0 121 0 -5 49 c-9 95 -84 204 -175 254 -27 14 -79 33 -114 42 -79 19
-254 27 -334 15z"/>
<path d="M6213 2085 c-123 -27 -256 -121 -325 -227 l-33 -51 -3 127 -3 126
-119 0 -120 0 0 -740 0 -740 119 0 120 0 3 453 c4 418 6 457 24 518 39 128
114 216 233 275 77 38 189 44 279 16 l62 -20 0 128 c0 124 -1 128 -22 134 -53
14 -156 15 -215 1z"/>
<path d="M7165 2094 c-243 -39 -423 -186 -523 -427 -51 -121 -65 -217 -59
-396 5 -176 22 -253 84 -374 71 -142 167 -239 294 -295 100 -46 161 -57 304
-57 146 0 205 11 313 61 128 58 235 189 249 305 l6 49 -120 0 -119 0 -12 -44
c-14 -54 -60 -109 -116 -139 -36 -20 -56 -22 -177 -22 l-135 0 -76 38 c-90 44
-150 106 -198 203 -34 70 -60 174 -60 247 l0 47 511 0 512 0 -6 148 c-8 232
-54 370 -163 490 -57 63 -148 118 -243 146 -56 16 -213 28 -266 20z m238 -238
c67 -33 130 -99 164 -173 25 -53 53 -196 41 -208 -2 -3 -178 -4 -390 -3 l-385
3 14 55 c41 162 142 289 270 341 72 29 212 22 286 -15z"/>
<path d="M8645 2090 c-255 -40 -446 -194 -463 -371 l-5 -49 132 0 c129 0 131
0 131 23 1 65 70 150 155 189 42 19 67 23 160 23 93 0 118 -4 160 -23 61 -28
103 -66 122 -110 13 -32 32 -272 21 -272 -19 0 -273 -56 -363 -80 -287 -76
-437 -165 -502 -299 -26 -52 -28 -65 -28 -176 0 -111 2 -125 29 -183 67 -146
230 -232 411 -219 146 11 246 57 371 169 l79 70 7 -60 c3 -32 11 -78 18 -101
l11 -41 130 0 c120 0 130 1 125 18 -37 121 -39 143 -46 662 -6 490 -7 518 -28
580 -37 112 -137 189 -300 231 -90 23 -243 32 -327 19z m411 -891 c-4 -72 -15
-147 -27 -184 -49 -160 -208 -285 -361 -285 -78 0 -128 15 -174 53 -75 62 -94
163 -48 255 54 109 169 169 489 256 140 38 129 46 121 -95z"/>
<path d="M10304 2085 c-125 -27 -235 -107 -314 -229 l-40 -61 0 133 0 132
-120 0 -120 0 0 -740 0 -740 119 0 120 0 3 443 c4 381 7 450 21 502 28 94 67
165 128 226 112 112 253 149 364 94 30 -14 67 -42 82 -61 54 -71 56 -94 61
-671 l4 -533 118 0 118 0 5 438 c3 268 9 456 16 487 18 81 79 195 136 251 72
72 142 106 231 112 91 6 136 -9 190 -63 78 -78 77 -75 82 -687 l3 -538 120 0
119 0 0 550 c0 599 -4 649 -56 753 -54 106 -173 187 -308 209 -86 14 -189 -2
-274 -43 -74 -36 -177 -128 -222 -199 -18 -28 -33 -50 -35 -50 -2 0 -21 33
-43 73 -68 121 -151 183 -289 212 -82 18 -139 18 -219 0z"/>
<path d="M13032 2080 c-133 -35 -214 -91 -293 -203 l-49 -70 0 127 0 127 -122
-3 -123 -3 0 -1025 0 -1025 123 -3 122 -3 0 417 0 417 40 -62 c103 -159 241
-231 440 -231 168 0 293 50 400 159 156 158 229 385 217 674 -7 163 -32 269
-93 396 -124 256 -392 382 -662 311z m189 -196 c146 -43 244 -153 286 -321 25
-99 25 -383 0 -473 -40 -147 -123 -256 -234 -308 -52 -24 -69 -27 -168 -27
-101 0 -114 2 -164 28 -105 56 -182 164 -223 314 -30 110 -30 334 0 445 38
141 105 246 190 295 106 62 208 78 313 47z"/>
<path d="M14515 2089 c-84 -14 -184 -50 -243 -89 -115 -75 -201 -197 -205
-292 l-2 -43 132 -3 132 -3 6 38 c11 62 25 91 66 127 51 47 83 62 159 76 112
21 237 -2 308 -57 56 -43 72 -90 72 -225 l0 -117 -57 -11 c-360 -72 -565 -140
-682 -229 -111 -83 -154 -173 -154 -321 0 -75 5 -107 22 -152 32 -83 106 -159
197 -204 64 -32 85 -37 166 -42 75 -3 109 0 174 17 99 27 157 60 257 146 42
36 77 65 77 63 0 -15 23 -129 31 -156 l11 -32 129 0 c71 0 129 2 129 4 0 3
-10 42 -21 88 -20 77 -22 120 -28 598 -8 559 -9 568 -66 650 -91 132 -371 209
-610 169z m423 -906 c-3 -130 -5 -142 -35 -206 -91 -193 -307 -297 -466 -224
-122 56 -161 193 -88 310 54 84 162 139 415 212 83 24 157 44 165 44 11 1 13
-25 9 -136z"/>
<path d="M17730 2084 c-129 -34 -221 -103 -299 -224 l-41 -63 0 132 0 132
-122 -3 -123 -3 -3 -737 -2 -738 124 0 124 0 5 438 c4 482 7 509 69 624 130
245 435 305 542 107 26 -47 28 -61 36 -232 5 -100 9 -352 10 -559 l0 -378 119
0 118 0 6 433 c6 478 10 519 69 629 42 80 120 158 194 194 50 25 71 29 140 29
72 0 85 -3 129 -30 72 -45 103 -107 115 -231 5 -54 10 -307 10 -561 l0 -463
125 0 125 0 0 489 c0 508 -7 649 -40 754 -48 153 -191 259 -369 274 -173 14
-353 -81 -463 -246 l-36 -53 -32 62 c-17 34 -52 85 -77 112 -101 107 -293 155
-453 112z"/>
<path d="M20035 2086 c-137 -32 -252 -99 -340 -198 -249 -282 -272 -783 -50
-1093 79 -111 164 -174 301 -222 74 -26 90 -28 239 -28 149 0 165 2 240 28
100 35 161 74 224 143 59 65 93 131 99 195 l5 49 -122 0 -121 0 -6 -27 c-12
-57 -28 -85 -68 -119 -60 -51 -127 -67 -257 -62 -96 4 -114 8 -173 37 -87 43
-156 113 -201 203 -37 77 -65 184 -65 256 l0 42 510 0 510 0 0 123 c-1 346
-129 567 -382 654 -91 31 -252 40 -343 19z m282 -230 c32 -15 69 -37 82 -49
64 -60 115 -173 125 -279 l6 -58 -385 0 c-441 0 -400 -11 -365 101 43 141 148
259 270 303 68 25 191 16 267 -18z"/>
<path d="M21726 2085 c-120 -31 -232 -109 -313 -219 l-43 -58 0 126 0 127
-122 -3 -123 -3 -3 -737 -2 -738 124 0 124 0 5 443 c4 482 8 515 65 621 90
166 284 259 443 212 126 -36 183 -114 199 -273 5 -48 10 -294 10 -545 l0 -458
125 0 125 0 0 498 c0 515 -6 626 -40 733 -37 118 -135 215 -263 259 -82 28
-230 35 -311 15z"/>
<path d="M15443 2048 c2 -7 145 -326 317 -707 l312 -695 -22 -55 c-13 -31 -45
-100 -72 -153 -87 -172 -162 -216 -380 -225 l-128 -6 0 -105 0 -105 163 6
c238 8 322 39 440 167 83 89 146 223 512 1094 l333 791 -120 3 c-67 1 -125 -1
-129 -5 -4 -4 -107 -246 -230 -538 -122 -291 -225 -533 -228 -537 -3 -4 -116
238 -251 537 l-244 545 -139 0 c-107 0 -138 -3 -134 -12z"/>
</g>
</svg>
